0
SECTION
2
HEADER
9
$INSUNITS
70
4
0
ENDSEC
0
SECTION
2
ENTITIES
0
LINE
8
PCB_OUTLINE
10
0
20
0
30
0
11
88
21
0
31
0
0
LINE
8
PCB_OUTLINE
10
88
20
0
30
0
11
88
21
135
31
0
0
LINE
8
PCB_OUTLINE
10
88
20
135
30
0
11
0
21
135
31
0
0
LINE
8
PCB_OUTLINE
10
0
20
135
30
0
11
0
21
0
31
0
0
LINE
8
LCD_ENVELOPE
10
13.56
20
38.5
30
0
11
74.44
21
38.5
31
0
0
LINE
8
LCD_ENVELOPE
10
74.44
20
38.5
30
0
11
74.44
21
133.07
31
0
0
LINE
8
LCD_ENVELOPE
10
74.44
20
133.07
30
0
11
13.56
21
133.07
31
0
0
LINE
8
LCD_ENVELOPE
10
13.56
20
133.07
30
0
11
13.56
21
38.5
31
0
0
LINE
8
REAR_BATTERY
10
6
20
40
30
0
11
71
21
40
31
0
0
LINE
8
REAR_BATTERY
10
71
20
40
30
0
11
71
21
100
31
0
0
LINE
8
REAR_BATTERY
10
71
20
100
30
0
11
6
21
100
31
0
0
LINE
8
REAR_BATTERY
10
6
20
100
30
0
11
6
21
40
31
0
0
CIRCLE
8
BUTTON_SW1
10
42
20
31
30
0
40
2.55
0
CIRCLE
8
BUTTON_SW2
10
42
20
17
30
0
40
2.55
0
CIRCLE
8
BUTTON_SW3
10
35
20
24
30
0
40
2.55
0
CIRCLE
8
BUTTON_SW4
10
49
20
24
30
0
40
2.55
0
CIRCLE
8
BUTTON_SW5
10
42
20
24
30
0
40
2.55
0
CIRCLE
8
NPTH
10
3.0
20
132.0
30
0
40
1.1
0
CIRCLE
8
SCREW_RESERVATION
10
3.0
20
132.0
30
0
40
2.6
0
CIRCLE
8
NPTH
10
84.5
20
132.0
30
0
40
1.1
0
CIRCLE
8
SCREW_RESERVATION
10
84.5
20
132.0
30
0
40
2.6
0
CIRCLE
8
NPTH
10
3.5
20
38.0
30
0
40
1.1
0
CIRCLE
8
SCREW_RESERVATION
10
3.5
20
38.0
30
0
40
2.6
0
CIRCLE
8
NPTH
10
84.5
20
50.0
30
0
40
1.1
0
CIRCLE
8
SCREW_RESERVATION
10
84.5
20
50.0
30
0
40
2.6
0
CIRCLE
8
REAR_SPEAKER_ENVELOPE
10
30
20
117
30
0
40
14
0
ENDSEC
0
EOF
